<svg width="1315" height="30" viewBox="0 0 1315 30" fill="none" xmlns="http://www.w3.org/2000/svg">
<rect width="472.946" height="8" fill="white"/>
<rect x="445.892" y="5" width="54.1082" height="8" fill="white"/>
<rect x="37" y="15" width="58" height="15" fill="white"/>
<rect x="177" y="15" width="58" height="15" fill="white"/>
<path d="M318 17H437V30H370.024L318 17Z" fill="white"/>
<rect width="472.946" height="8" transform="matrix(-1 0 0 1 1315 0)" fill="white"/>
<rect width="54.1082" height="8" transform="matrix(-1 0 0 1 869.108 5)" fill="white"/>
<rect width="58" height="15" transform="matrix(-1 0 0 1 1278 15)" fill="white"/>
<rect width="58" height="15" transform="matrix(-1 0 0 1 1137 15)" fill="white"/>
<path d="M997 17H878V30H944.976L997 17Z" fill="white"/>
</svg>
